# xmcd
#
# Track frame offsets: 
#        150
#        22684
#        38651
#        57160
#        86832
#        102867
#        130890
#        146838
#        165407
#        189724
#
# Disc length: 2875 seconds
#
# Revision: 0
# Processed by: cddbd v1.5.2PL0 Copyright (c) Steve Scherf et al.
# Submitted via: ExactAudioCopy v0.99pb5
#
DISCID=7d0b390a
DTITLE=Guy Tortora - Prodigal Songs
DYEAR=2011
DGENRE=Blues
TTITLE0=Big Wheel
TTITLE1=Rag Mama Rag
TTITLE2=Too Much Stuff
TTITLE3=Miss You So
TTITLE4=That's Against The Law
TTITLE5=Willie Dixon
TTITLE6=Quittin' Time
TTITLE7=Viola Lee Blues
TTITLE8=Wayfaring Stranger
TTITLE9=Prodicgal Song
EXTD=
EXTT0=
EXTT1=
EXTT2=
EXTT3=
EXTT4=
EXTT5=
EXTT6=
EXTT7=
EXTT8=
EXTT9=
PLAYORDER=
